<?xml version="1.0" standalone="no"?>
<!DOCTYPE svg PUBLIC "-//W3C//DTD SVG 20010904//EN"
 "http://www.w3.org/TR/2001/REC-SVG-20010904/DTD/svg10.dtd">
<svg version="1.0" xmlns="http://www.w3.org/2000/svg"
 width="128.000000pt" height="128.000000pt" viewBox="0 0 128.000000 128.000000"
 preserveAspectRatio="xMidYMid meet">
<metadata>
Created by potrace 1.11, written by Peter Selinger 2001-2013
</metadata>
<g transform="translate(0.000000,128.000000) scale(0.100000,-0.100000)"
fill="#000000" stroke="none">
<path d="M673 1270 c-31 -13 -55 -54 -55 -94 0 -18 10 -61 23 -95 13 -36 18
-65 13 -70 -15 -14 -253 -90 -258 -83 -2 4 -13 38 -26 75 -21 65 -59 115 -87
118 -7 1 -19 2 -25 3 -47 7 -108 -50 -108 -100 0 -11 11 -54 25 -94 14 -40 25
-74 25 -75 0 -1 -34 -13 -76 -26 -96 -30 -128 -62 -121 -123 4 -29 14 -48 36
-68 38 -34 63 -34 156 -4 l70 22 42 -124 c23 -69 40 -128 38 -133 -3 -4 -20
-11 -37 -14 -50 -11 -120 -44 -134 -63 -38 -52 -18 -129 40 -154 38 -15 53
-14 133 13 35 11 68 17 72 13 4 -5 14 -29 21 -54 30 -99 68 -140 132 -140 44
0 96 59 93 106 -1 11 -12 51 -25 88 -18 57 -20 70 -9 77 26 16 249 87 253 81
2 -4 13 -37 25 -74 33 -101 76 -135 149 -116 35 9 72 57 72 94 0 11 -11 54
-25 94 -14 40 -24 74 -22 75 1 1 33 12 70 25 88 29 117 53 124 107 5 39 2 46
-30 78 -42 42 -63 43 -162 11 -38 -13 -71 -23 -71 -22 -6 4 -85 249 -81 252 2
2 34 15 71 27 67 24 115 57 117 79 0 7 2 24 5 37 6 32 -33 89 -66 98 -35 9
-47 8 -124 -17 -37 -12 -71 -18 -75 -14 -4 5 -14 29 -21 54 -36 120 -89 161
-167 130z m65 -487 c28 -73 72 -207 72 -219 0 -12 -255 -104 -262 -94 -2 3
-22 60 -45 127 l-40 122 41 15 c68 25 211 75 217 75 4 1 11 -11 17 -26z"/>
</g>
</svg>
